<?xml version="1.0" encoding="utf-8"?>
<!-- Generator: Adobe Illustrator 19.0.0, SVG Export Plug-In . SVG Version: 6.00 Build 0)  -->
<svg version="1.1" id="GoogleLogo_x5F_FullColor_x5F_rgb_21_"
	 xmlns="http://www.w3.org/2000/svg" xmlns:xlink="http://www.w3.org/1999/xlink" x="0px" y="0px" width="74.66px" height="24px"
	 viewBox="0 0 74.66 24" enable-background="new 0 0 74.66 24" xml:space="preserve">
<g id="_x37_5x24px">
	<path fill="#4285F4" d="M9.44,18.62C4.31,18.62,0,14.44,0,9.31C0,4.18,4.31,0,9.44,0c2.84,0,4.86,1.11,6.38,2.57l-1.79,1.79
		c-1.09-1.02-2.57-1.82-4.59-1.82c-3.75,0-6.68,3.02-6.68,6.77c0,3.75,2.93,6.77,6.68,6.77c2.43,0,3.81-0.98,4.7-1.86
		c0.73-0.73,1.2-1.77,1.38-3.2H9.44V8.47H18c0.09,0.45,0.14,1,0.14,1.59c0,1.91-0.52,4.27-2.2,5.95
		C14.3,17.71,12.22,18.62,9.44,18.62z"/>
	<path fill="#E94235" d="M31.38,12.62c0,3.45-2.65,5.99-5.91,5.99s-5.91-2.54-5.91-5.99c0-3.47,2.65-5.99,5.91-5.99
		S31.38,9.15,31.38,12.62z M28.79,12.62c0-2.16-1.54-3.63-3.32-3.63s-3.32,1.48-3.32,3.63c0,2.13,1.54,3.63,3.32,3.63
		S28.79,14.76,28.79,12.62z"/>
	<path fill="#FABB05" d="M44.62,12.62c0,3.45-2.65,5.99-5.91,5.99c-3.25,0-5.91-2.54-5.91-5.99c0-3.47,2.65-5.99,5.91-5.99
		C41.97,6.63,44.62,9.15,44.62,12.62z M42.04,12.62c0-2.16-1.54-3.63-3.32-3.63c-1.78,0-3.32,1.48-3.32,3.63
		c0,2.13,1.54,3.63,3.32,3.63C40.5,16.26,42.04,14.76,42.04,12.62z"/>
	<path fill="#4285F4" d="M57.54,6.99v10.76c0,4.43-2.61,6.24-5.7,6.24c-2.91,0-4.65-1.95-5.31-3.54l2.29-0.95
		c0.41,0.98,1.41,2.13,3.02,2.13c1.98,0,3.2-1.23,3.2-3.52v-0.86h-0.09c-0.59,0.73-1.73,1.36-3.16,1.36c-3,0-5.74-2.61-5.74-5.97
		c0-3.38,2.75-6.02,5.74-6.02c1.43,0,2.57,0.64,3.16,1.34h0.09V6.99H57.54z M55.22,12.65c0-2.11-1.41-3.66-3.2-3.66
		c-1.82,0-3.34,1.54-3.34,3.66c0,2.09,1.52,3.61,3.34,3.61C53.81,16.26,55.22,14.74,55.22,12.65z"/>
	<path fill="#34A853" d="M62.15,0.64v17.62h-2.63V0.64H62.15z"/>
	<path fill="#E94235" d="M72.51,14.6l2.04,1.36c-0.66,0.98-2.25,2.66-5,2.66c-3.41,0-5.86-2.63-5.86-5.99
		c0-3.56,2.48-5.99,5.57-5.99c3.11,0,4.63,2.47,5.13,3.81l0.27,0.68l-8.01,3.32c0.61,1.2,1.57,1.82,2.91,1.82S71.83,15.6,72.51,14.6
		z M66.22,12.44l5.36-2.22c-0.3-0.75-1.18-1.27-2.23-1.27C68.01,8.95,66.15,10.13,66.22,12.44z"/>
</g>
</svg>
